<?xml version="1.0" encoding="utf-8"?>
<!-- Generator: Adobe Illustrator 16.0.0, SVG Export Plug-In . SVG Version: 6.00 Build 0)  -->
<!DOCTYPE svg PUBLIC "-//W3C//DTD SVG 1.1//EN" "http://www.w3.org/Graphics/SVG/1.1/DTD/svg11.dtd">
<svg version="1.1" id="Layer_1" xmlns="http://www.w3.org/2000/svg" xmlns:xlink="http://www.w3.org/1999/xlink" x="0px" y="0px"
	 width="512.002px" height="146.523px" viewBox="0 0 512.002 146.523" enable-background="new 0 0 512.002 146.523"
	 xml:space="preserve">
<g>
	<polygon fill="#606A70" points="274.28,73.005 274.28,57.984 224.865,57.984 224.865,44.475 265.394,44.475 265.394,29.449 
		224.977,29.449 224.977,17.716 274.28,17.716 274.28,2.565 208.694,2.565 208.694,73.005 	"/>
	<polygon fill="#606A70" points="159.09,75.531 205.402,2.566 185.112,2.566 159.09,46.873 133.194,2.566 112.778,2.566 	"/>
	<polygon fill="#606A70" points="92.896,0 139.207,72.972 118.916,72.972 92.896,28.663 67.002,72.972 46.586,72.972 	"/>
	<polygon fill="#606A70" points="364.154,75.531 364.154,2.566 347.678,2.566 347.678,45.488 285.292,0.04 285.292,73.004 
		301.758,73.004 301.758,31.218 	"/>
	<polygon fill="#606A70" points="447.447,73.041 376.788,73.041 376.788,2.585 447.512,2.585 440.27,17.733 393.122,17.686 
		393.122,57.878 432.293,57.878 432.293,45.73 405.098,45.73 405.098,31.409 447.447,31.409 	"/>
	<path fill="#606A70" d="M368.199,96.093c-3.589-1.378-7.535-2.492-12.534-2.492c-8.101,0-17.604,1.254-17.604,10.845
		c0,15.849,24.972,8.797,24.972,15.036c0,3.058-3.77,3.99-10.344,3.99c-4.508,0-10.52-1.435-14.85-2.805v7.924
		c4.33,1.245,9.618,2.307,15.13,2.307c9.502,0,17.938-1.805,17.938-11.416c0-15.528-24.971-8.797-24.971-15.036
		c0-3.354,5.679-3.425,9.729-3.425c4.552,0,8.325,0.873,12.263,2.498L368.199,96.093z"/>
	<polygon fill="#606A70" points="391.94,129.655 391.94,102.333 406.279,102.333 406.279,94.855 369.834,94.855 369.834,102.333 
		384.065,102.333 384.065,129.655 	"/>
	<polygon fill="#606A70" points="440.24,129.655 440.24,122.227 416.182,122.227 416.182,115.548 435.912,115.548 435.912,108.131 
		416.232,108.131 416.232,102.333 440.24,102.333 440.24,94.855 408.301,94.855 408.301,129.655 	"/>
	<polygon fill="#606A70" points="477.018,129.655 477.018,122.227 452.951,122.227 452.951,115.548 472.695,115.548 
		472.695,108.131 453.008,108.131 453.008,102.333 477.018,102.333 477.018,94.855 445.078,94.855 445.078,129.655 	"/>
	<polygon fill="#606A70" points="512.002,129.655 512.002,122.227 489.68,122.227 489.68,94.855 481.795,94.855 481.795,129.655 	
		"/>
	<polygon fill="#606A70" points="97.41,129.655 97.41,102.333 111.507,102.333 111.507,94.855 75.683,94.855 75.683,102.333 
		89.668,102.333 89.668,129.655 	"/>
	<path fill="#606A70" d="M146.511,106.697c0-4.419-2.648-11.842-11.44-11.842h-20.742v34.8h7.802v-11.044h10.112l5.755,11.044h8.958
		l-6.416-12.289C145.027,115.057,146.511,110.065,146.511,106.697 M138.382,106.697c0,1.625-0.877,4.427-5.306,4.427h-10.945v-8.79
		h10.945C137.505,102.333,138.382,105.135,138.382,106.697"/>
	<rect x="152.692" y="94.855" fill="#606A70" width="7.744" height="34.798"/>
	<path fill="#606A70" d="M204.765,112.247c0-13.598-8.956-17.392-20.305-17.392h-17.405v34.8h17.405
		C195.809,129.655,204.765,125.839,204.765,112.247 M196.468,112.247c0,9.17-7.027,9.98-12.008,9.98h-9.669v-19.894h9.669
		C189.441,102.333,196.468,103.083,196.468,112.247"/>
	<polygon fill="#606A70" points="240.924,129.655 240.924,122.227 217.262,122.227 217.262,115.548 236.676,115.548 
		236.676,108.131 217.314,108.131 217.314,102.333 240.924,102.333 240.924,94.855 209.513,94.855 209.513,129.655 	"/>
	<polygon fill="#606A70" points="283.007,130.898 283.007,94.855 275.208,94.855 275.208,116.051 245.686,93.601 245.686,129.655 
		253.477,129.655 253.477,109.003 	"/>
	<polygon fill="#606A70" points="307.556,129.655 307.556,102.333 321.656,102.333 321.656,94.855 285.827,94.855 285.827,102.333 
		299.819,102.333 299.819,129.655 	"/>
	<rect x="33.528" y="79.441" fill="#253A71" width="33.485" height="67.082"/>
	<polygon fill="#253A71" points="0,79.392 0,94.77 33.593,94.77 33.593,79.325 	"/>
	<path fill="#FFCB05" d="M33.588,79.392h14.125v8.052c5.484,10.416,10.957,20.836,16.435,31.249
		c0.445,0.846,0.812,1.669,1.148,2.492c0.075,0.189,0.159,0.38,0.231,0.571c0.3,0.794,0.572,1.581,0.775,2.343
		c0.037,0.116,0.054,0.217,0.091,0.331c0.171,0.667,0.301,1.334,0.415,1.979c0.035,0.196,0.07,0.391,0.093,0.578
		c0.093,0.734,0.161,1.464,0.184,2.169c0,0.013,0,0.025,0.002,0.034v0.938v0.015c-0.002,0.025-0.011,0.056-0.011,0.076
		c-0.015,0.502-0.049,0.985-0.097,1.469c-0.008,0.065-0.008,0.122-0.017,0.194c-0.062,0.527-0.154,1.051-0.264,1.567
		c-0.018,0.104-0.054,0.205-0.074,0.311c-0.097,0.396-0.194,0.783-0.307,1.16c-0.058,0.173-0.118,0.327-0.17,0.503
		c-0.101,0.304-0.219,0.607-0.338,0.898c-0.076,0.175-0.148,0.346-0.223,0.511c-0.123,0.282-0.259,0.567-0.397,0.846
		c-0.075,0.15-0.168,0.311-0.25,0.463c-0.154,0.278-0.315,0.557-0.491,0.822c-0.074,0.131-0.154,0.256-0.241,0.393
		c-0.194,0.3-0.406,0.578-0.621,0.856c-0.065,0.098-0.132,0.19-0.212,0.283c-0.283,0.371-0.585,0.722-0.897,1.06
		c-0.458,0.477-0.948,0.903-1.435,1.295c-0.095,0.076-0.188,0.154-0.287,0.227c-0.495,0.367-0.998,0.698-1.509,0.993
		c-0.064,0.043-0.125,0.072-0.194,0.105c-0.508,0.279-1.021,0.53-1.532,0.743c-0.575,0.253-1.171,0.46-1.763,0.642
		c-1.701,0.562-3.697,0.911-5.506,0.911H33.588v-15.167c0,0,13.405,0.017,14.158-0.015c2.219,0,4.868-1.378,3.193-4.476
		c-1.331-2.52-17.351-32.045-17.351-32.045V79.392z"/>
	<path fill="#253A71" d="M12.077,146.49c0,0-11.94,0.226-11.94-12.323v-35.99h15.601v31.28c0,0-0.106,1.863,2.694,1.863h15.296
		v15.17H12.077z"/>
	<polygon fill="#606A70" points="512.002,129.655 512.002,122.227 489.68,122.227 489.68,94.855 481.795,94.855 481.795,129.655 	
		"/>
</g>
</svg>
